# xmcd
#
# Track frame offsets: 
#        150
#        19116
#        40356
#        55253
#        77245
#        94990
#        112537
#        127865
#        147511
#        153626
#        170684
#        182401
#        202451
#
# Disc length: 2953 seconds
#
# Revision: 1
# Processed by: cddbd v1.5.2PL0 Copyright (c) Steve Scherf et al.
# Submitted via: ExactAudioCopy v1.0b6
#
DISCID=b30b870d
DTITLE=DMX Krew - Kiss Goodbye
DYEAR=2005
DGENRE=Electronic
TTITLE0=Kiss Goodbye
TTITLE1=Cold Love
TTITLE2=You Take Me Up
TTITLE3=Feelings So Strong
TTITLE4=Who's That Guy?
TTITLE5=Let's Rock
TTITLE6=Keep On Keepin' On
TTITLE7=He Exists!
TTITLE8=1101100001
TTITLE9=H.O.T.
TTITLE10=D.I.V.O.R.C.E.E.
TTITLE11=Clementine
TTITLE12=Cold Dub
EXTD=
EXTT0=
EXTT1=
EXTT2=
EXTT3=
EXTT4=
EXTT5=
EXTT6=
EXTT7=
EXTT8=
EXTT9=
EXTT10=
EXTT11=
EXTT12=
PLAYORDER=
